<?xml version="1.0" encoding="UTF-8" standalone="no"?>
<!DOCTYPE svg PUBLIC "-//W3C//DTD SVG 1.1//EN" "http://www.w3.org/Graphics/SVG/1.1/DTD/svg11.dtd">
<svg version="1.1" xmlns="http://www.w3.org/2000/svg" xmlns:xlink="http://www.w3.org/1999/xlink" preserveAspectRatio="xMidYMid meet" viewBox="20.499916551258842 18.005015786642844 602.6199734353005 206.18021486001766" width="603" height="206"><defs><path d="M621.29 33.37L622.26 34.33L622.89 35.56L623.12 36.97L622.89 38.38L622.26 39.61L621.29 40.57L620.06 41.21L618.65 41.44L617.24 41.21L616.02 40.57L615.05 39.61L614.42 38.38L614.19 36.97L614.42 35.56L615.05 34.33L616.02 33.37L617.24 32.73L618.65 32.5L620.06 32.73L621.29 33.37ZM616.16 34.47L615.4 35.6L615.12 36.97L615.4 38.35L616.16 39.47L617.28 40.23L618.65 40.5L620.03 40.23L621.15 39.47L621.91 38.35L622.19 36.97L621.91 35.6L621.15 34.47L620.03 33.72L618.65 33.44L617.28 33.72L616.16 34.47Z" id="b2htoC7uLO"/><linearGradient id="gradientdcP36ZcND" gradientUnits="userSpaceOnUse" x1="618.65" y1="32.5" x2="618.65" y2="41.44"><stop style="stop-color: #3498db;stop-opacity: 1" offset="0%"/><stop style="stop-color: #8e44ad;stop-opacity: 1" offset="100%"/></linearGradient><path d="M51.1 218.3L51.83 219.4L52.11 220.74L51.83 222.08L51.1 223.17L50 223.91L48.66 224.19L47.32 223.91L46.22 223.17L45.48 222.08L45.21 220.74L45.48 219.4L46.22 218.3L47.32 217.56L48.66 217.29L50 217.56L51.1 218.3ZM46.73 218.81L46.15 219.68L45.93 220.74L46.15 221.8L46.73 222.67L47.6 223.25L48.66 223.46L49.72 223.25L50.59 222.67L51.17 221.8L51.39 220.74L51.17 219.68L50.59 218.81L49.72 218.22L48.66 218.01L47.6 218.22L46.73 218.81Z" id="bf0sdAKcS"/><linearGradient id="gradienta14JJOaRqC" gradientUnits="userSpaceOnUse" x1="48.66" y1="217.29" x2="48.66" y2="224.19"><stop style="stop-color: #3498db;stop-opacity: 1" offset="0%"/><stop style="stop-color: #8e44ad;stop-opacity: 1" offset="100%"/></linearGradient><path d="M582.1 22.37L579.61 24.87L578.78 21.44L577.95 18.01L584.59 19.86L582.1 22.37ZM579.92 23.77L581.77 21.91L583.61 20.05L578.69 18.68L579.3 21.23L579.92 23.77Z" id="c4xXcd1cb9"/><linearGradient id="gradientdlYFpf533" gradientUnits="userSpaceOnUse" x1="579.61" y1="24.87" x2="581.27" y2="18.93"><stop style="stop-color: #8e44ad;stop-opacity: 1" offset="0%"/><stop style="stop-color: #3498db;stop-opacity: 1" offset="100%"/></linearGradient><path d="M609.32 174.56L610.77 172.67L611.83 173.48L610.38 175.38L612.28 176.83L611.46 177.89L609.57 176.44L608.12 178.33L607.06 177.52L608.51 175.62L606.62 174.17L607.43 173.11L609.32 174.56Z" id="a14xvXHnpH"/><linearGradient id="gradienta2nk5JPRIP" gradientUnits="userSpaceOnUse" x1="606.84" y1="175.84" x2="612.05" y2="175.15"><stop style="stop-color: #3498db;stop-opacity: 1" offset="0%"/><stop style="stop-color: #8e44ad;stop-opacity: 1" offset="100%"/></linearGradient><path d="M601.63 135.66L596.87 133.91L600.85 130.78L604.83 127.64L606.39 137.4L601.63 135.66ZM598.49 133.66L602.02 134.95L605.54 136.24L604.39 129L601.44 131.33L598.49 133.66Z" id="a2xrZgmaXa"/><linearGradient id="gradientcOhPAjiup" gradientUnits="userSpaceOnUse" x1="596.87" y1="133.91" x2="605.61" y2="132.52"><stop style="stop-color: #8e44ad;stop-opacity: 1" offset="0%"/><stop style="stop-color: #3498db;stop-opacity: 1" offset="100%"/></linearGradient><path d="M619.04 81.7L618.76 84.82L617.02 84.66L617.3 81.55L614.19 81.27L614.35 79.52L617.46 79.8L617.74 76.69L619.48 76.85L619.2 79.96L622.31 80.24L622.16 81.99L619.04 81.7Z" id="dW9dmOjGK"/><linearGradient id="gradienthfNAUceD8" gradientUnits="userSpaceOnUse" x1="620.9" y1="78.55" x2="615.6" y2="82.96"><stop style="stop-color: #3498db;stop-opacity: 1" offset="0%"/><stop style="stop-color: #8e44ad;stop-opacity: 1" offset="100%"/></linearGradient><path d="M50.85 52.37L51.56 53.42L51.82 54.71L51.56 55.99L50.85 57.04L49.8 57.75L48.51 58.01L47.23 57.75L46.18 57.04L45.47 55.99L45.21 54.71L45.47 53.42L46.18 52.37L47.23 51.66L48.51 51.4L49.8 51.66L50.85 52.37ZM46.67 52.86L46.11 53.69L45.9 54.71L46.11 55.72L46.67 56.55L47.5 57.11L48.51 57.32L49.53 57.11L50.36 56.55L50.92 55.72L51.13 54.71L50.92 53.69L50.36 52.86L49.53 52.3L48.51 52.09L47.5 52.3L46.67 52.86Z" id="bSEK1ukhm"/><linearGradient id="gradienta2XSGXKQb" gradientUnits="userSpaceOnUse" x1="48.51" y1="51.4" x2="48.51" y2="58.01"><stop style="stop-color: #3498db;stop-opacity: 1" offset="0%"/><stop style="stop-color: #8e44ad;stop-opacity: 1" offset="100%"/></linearGradient><path d="M24.4 24.4L25.55 26.49L24.38 27.13L23.23 25.04L21.14 26.19L20.5 25.02L22.59 23.87L21.44 21.78L22.62 21.14L23.76 23.23L25.85 22.08L26.5 23.25L24.4 24.4Z" id="a2NSki0oWj"/><linearGradient id="gradienta8KlQFeRF" gradientUnits="userSpaceOnUse" x1="24.23" y1="21.61" x2="22.76" y2="26.66"><stop style="stop-color: #3498db;stop-opacity: 1" offset="0%"/><stop style="stop-color: #8e44ad;stop-opacity: 1" offset="100%"/></linearGradient><path d="M89.63 30.19L86.64 27.88L90.18 26.54L93.72 25.2L92.63 32.5L89.63 30.19ZM87.85 28.06L90.07 29.77L92.29 31.49L93.1 26.07L90.47 27.06L87.85 28.06Z" id="b2yqxLSwt"/><linearGradient id="gradienti2HvniNU2" gradientUnits="userSpaceOnUse" x1="86.64" y1="27.88" x2="93.17" y2="28.85"><stop style="stop-color: #8e44ad;stop-opacity: 1" offset="0%"/><stop style="stop-color: #3498db;stop-opacity: 1" offset="100%"/></linearGradient><path d="M573.69 193.57L574.25 194.41L574.46 195.43L574.25 196.45L573.69 197.29L572.85 197.85L571.83 198.06L570.8 197.85L569.97 197.29L569.4 196.45L569.2 195.43L569.4 194.41L569.97 193.57L570.8 193.01L571.83 192.8L572.85 193.01L573.69 193.57ZM570.36 193.96L569.91 194.62L569.75 195.43L569.91 196.24L570.36 196.9L571.02 197.35L571.83 197.51L572.64 197.35L573.3 196.9L573.75 196.24L573.91 195.43L573.75 194.62L573.3 193.96L572.64 193.51L571.83 193.35L571.02 193.51L570.36 193.96Z" id="b20tyYheNQ"/><linearGradient id="gradientaCjUQxAP7" gradientUnits="userSpaceOnUse" x1="571.83" y1="192.8" x2="571.83" y2="198.06"><stop style="stop-color: #3498db;stop-opacity: 1" offset="0%"/><stop style="stop-color: #8e44ad;stop-opacity: 1" offset="100%"/></linearGradient><path d="M27.08 181.95L29.96 181.15L30.41 182.76L27.53 183.57L28.33 186.45L26.72 186.9L25.91 184.02L23.03 184.82L22.58 183.2L25.46 182.4L24.66 179.51L26.28 179.06L27.08 181.95Z" id="a4Khiy2I3"/><linearGradient id="gradienta4QIe4ahnN" gradientUnits="userSpaceOnUse" x1="23.62" y1="181.36" x2="29.37" y2="184.61"><stop style="stop-color: #3498db;stop-opacity: 1" offset="0%"/><stop style="stop-color: #8e44ad;stop-opacity: 1" offset="100%"/></linearGradient><path d="M28.84 119.72L26.5 116.74L30.26 116.31L34.02 115.87L31.18 122.69L28.84 119.72ZM27.63 117.21L29.36 119.42L31.1 121.62L33.2 116.57L30.41 116.89L27.63 117.21Z" id="c4Ew2hDVzU"/><linearGradient id="gradienta1tA4C3oCk" gradientUnits="userSpaceOnUse" x1="26.5" y1="116.74" x2="32.6" y2="119.28"><stop style="stop-color: #8e44ad;stop-opacity: 1" offset="0%"/><stop style="stop-color: #3498db;stop-opacity: 1" offset="100%"/></linearGradient></defs><g><g><use xlink:href="#b2htoC7uLO" opacity="0.5" fill="url(#gradientdcP36ZcND)"/></g><g><use xlink:href="#bf0sdAKcS" opacity="0.55" fill="url(#gradienta14JJOaRqC)"/></g><g><use xlink:href="#c4xXcd1cb9" opacity="0.5" fill="url(#gradientdlYFpf533)"/></g><g><use xlink:href="#a14xvXHnpH" opacity="0.5" fill="url(#gradienta2nk5JPRIP)"/></g><g><use xlink:href="#a2xrZgmaXa" opacity="0.5" fill="url(#gradientcOhPAjiup)"/></g><g><use xlink:href="#dW9dmOjGK" opacity="0.63" fill="url(#gradienthfNAUceD8)"/></g><g><use xlink:href="#bSEK1ukhm" opacity="0.5" fill="url(#gradienta2XSGXKQb)"/></g><g><use xlink:href="#a2NSki0oWj" opacity="0.55" fill="url(#gradienta8KlQFeRF)"/></g><g><use xlink:href="#b2yqxLSwt" opacity="1" fill="url(#gradienti2HvniNU2)"/></g><g><use xlink:href="#b20tyYheNQ" opacity="0.5" fill="url(#gradientaCjUQxAP7)"/></g><g><use xlink:href="#a4Khiy2I3" opacity="0.55" fill="url(#gradienta4QIe4ahnN)"/></g><g><use xlink:href="#c4Ew2hDVzU" opacity="1" fill="url(#gradienta1tA4C3oCk)"/></g></g></svg>